<svg width="32" height="32" viewBox="0 0 32 32" fill="none" xmlns="http://www.w3.org/2000/svg">
<g id="Device / computer">
<path id="Vector" d="M28 18.6668H26.6667V9.3335C26.6667 8.27263 26.2453 7.25521 25.4951 6.50507C24.745 5.75492 23.7276 5.3335 22.6667 5.3335H9.33335C8.27249 5.3335 7.25507 5.75492 6.50493 6.50507C5.75478 7.25521 5.33335 8.27263 5.33335 9.3335V18.6668H4.00002C3.6464 18.6668 3.30726 18.8073 3.05721 19.0574C2.80716 19.3074 2.66669 19.6465 2.66669 20.0002V22.6668C2.66669 23.7277 3.08811 24.7451 3.83826 25.4953C4.58841 26.2454 5.60582 26.6668 6.66669 26.6668H25.3334C26.3942 26.6668 27.4116 26.2454 28.1618 25.4953C28.9119 24.7451 29.3334 23.7277 29.3334 22.6668V20.0002C29.3334 19.6465 29.1929 19.3074 28.9428 19.0574C28.6928 18.8073 28.3536 18.6668 28 18.6668ZM8.00002 9.3335C8.00002 8.97987 8.1405 8.64074 8.39055 8.39069C8.64059 8.14064 8.97973 8.00016 9.33335 8.00016H22.6667C23.0203 8.00016 23.3594 8.14064 23.6095 8.39069C23.8595 8.64074 24 8.97987 24 9.3335V18.6668H8.00002V9.3335ZM26.6667 22.6668C26.6667 23.0205 26.5262 23.3596 26.2762 23.6096C26.0261 23.8597 25.687 24.0002 25.3334 24.0002H6.66669C6.31307 24.0002 5.97393 23.8597 5.72388 23.6096C5.47383 23.3596 5.33335 23.0205 5.33335 22.6668V21.3335H26.6667V22.6668Z" fill="#A53DFF"/>
</g>
</svg>
