<svg width="32" height="32" viewBox="0 0 32 32" fill="none" xmlns="http://www.w3.org/2000/svg">
<g id="User Interface / Pencil">
<path id="Vector" d="M29.3333 9.65319C29.3344 9.47772 29.3007 9.30377 29.2344 9.14132C29.168 8.97887 29.0703 8.83111 28.9467 8.70653L23.2933 3.05319C23.1688 2.92962 23.021 2.83185 22.8586 2.7655C22.6961 2.69915 22.5222 2.66551 22.3467 2.66653C22.1712 2.66551 21.9973 2.69915 21.8348 2.7655C21.6724 2.83185 21.5246 2.92962 21.4 3.05319L17.6267 6.82653L3.05335 21.3999C2.92977 21.5244 2.832 21.6722 2.76565 21.8346C2.6993 21.9971 2.66566 22.1711 2.66668 22.3465V27.9999C2.66668 28.3535 2.80715 28.6926 3.0572 28.9427C3.30725 29.1927 3.64639 29.3332 4.00001 29.3332H9.65334C9.83991 29.3433 10.0265 29.3142 10.2011 29.2475C10.3757 29.1809 10.5343 29.0784 10.6667 28.9465L25.16 14.3732L28.9467 10.6665C29.0684 10.5373 29.1675 10.3886 29.24 10.2265C29.2529 10.1202 29.2529 10.0128 29.24 9.90653C29.2462 9.84446 29.2462 9.78192 29.24 9.71986L29.3333 9.65319ZM9.10668 26.6665H5.33335V22.8932L18.5733 9.65319L22.3467 13.4265L9.10668 26.6665ZM24.2267 11.5465L20.4533 7.77319L22.3467 5.89319L26.1067 9.65319L24.2267 11.5465Z" fill="#A53DFF"/>
</g>
</svg>
