<svg width="16" height="16" viewBox="0 0 16 16" fill="none" xmlns="http://www.w3.org/2000/svg">
<path d="M0.703992 8.00312L8 0.707108L15.296 8.00312L14.5969 8.71475L9.35355 3.47145L8.5 2.61789V3.825L8.5 15.5H7.5L7.5 3.825V2.61789L6.64645 3.47145L1.40314 8.71475L0.703992 8.00312Z" fill="black"/>
<path d="M0.703992 8.00312L8 0.707108L15.296 8.00312L14.5969 8.71475L9.35355 3.47145L8.5 2.61789V3.825L8.5 15.5H7.5L7.5 3.825V2.61789L6.64645 3.47145L1.40314 8.71475L0.703992 8.00312Z" stroke="black"/>
<path d="M0.703992 8.00312L8 0.707108L15.296 8.00312L14.5969 8.71475L9.35355 3.47145L8.5 2.61789V3.825L8.5 15.5H7.5L7.5 3.825V2.61789L6.64645 3.47145L1.40314 8.71475L0.703992 8.00312Z" stroke="black" stroke-opacity="0.2"/>
</svg>
