<svg width="72" height="72" viewBox="0 0 72 72" fill="none" xmlns="http://www.w3.org/2000/svg">
<rect width="72" height="72" rx="6" fill="#EDD8FF" fill-opacity="0.5"/>
<path d="M49.3333 29.6532C49.3344 29.4777 49.3007 29.3038 49.2344 29.1413C49.168 28.9789 49.0703 28.8311 48.9467 28.7065L43.2933 23.0532C43.1688 22.9296 43.021 22.8319 42.8586 22.7655C42.6961 22.6991 42.5222 22.6655 42.3467 22.6665C42.1712 22.6655 41.9973 22.6991 41.8348 22.7655C41.6724 22.8319 41.5246 22.9296 41.4 23.0532L37.6267 26.8265L23.0533 41.3999C22.9298 41.5244 22.832 41.6722 22.7657 41.8346C22.6993 41.9971 22.6657 42.1711 22.6667 42.3465V47.9999C22.6667 48.3535 22.8072 48.6926 23.0572 48.9427C23.3073 49.1927 23.6464 49.3332 24 49.3332H29.6533C29.8399 49.3433 30.0265 49.3142 30.2011 49.2475C30.3757 49.1809 30.5343 49.0784 30.6667 48.9465L45.16 34.3732L48.9467 30.6665C49.0684 30.5373 49.1675 30.3886 49.24 30.2265C49.2529 30.1202 49.2529 30.0128 49.24 29.9065C49.2462 29.8445 49.2462 29.7819 49.24 29.7199L49.3333 29.6532ZM29.1067 46.6665H25.3333V42.8932L38.5733 29.6532L42.3467 33.4265L29.1067 46.6665ZM44.2267 31.5465L40.4533 27.7732L42.3467 25.8932L46.1067 29.6532L44.2267 31.5465Z" fill="#A53DFF"/>
</svg>
